<svg xmlns="http://www.w3.org/2000/svg" viewBox="0 0 316.5 153.7">
  <path d="M31.6 7.6c0-2.7-3.8-5.4-3.8-6.6 0-.7.4-.9 1-.9h14.6c.6 0 1 .3 1 .9 0 1.2-3.8 3.9-3.8 6.6v56.3c0 2.7 3.8 5.4 3.8 6.6 0 .7-.4.9-1 .9H28.7c-.6 0-1-.3-1-.9 0-1.2 3.8-3.9 3.8-6.6V48.4c0-.8-.3-1.1-.7-1.1-.4 0-.8.3-1.8.9l-14.6 8c-.6.4-.9.9-.9 1.1V64c0 2.7 3.8 5.4 3.8 6.6 0 .7-.4.9-1 .9H1.9c-.6 0-1-.3-1-.9 0-1.2 3.8-3.9 3.8-6.6V7.6C4.7 4.9.9 2.2.9 1c0-.7.4-.9 1-.9h14.6c.6 0 1 .3 1 .9 0 1.2-3.8 3.9-3.8 6.6v37.8c0 .5.1.7.4.7.3 0 .9-.4.9-.4l16-8.5c.5-.3.7-.8.7-1.3V7.6zM73.8 9.5c0-1.1-.7-1.9-1.5-1.9H61.8c-.8 0-1.2.5-1.2 1.5v28.6l11.3-7.3c.9-.6 1.4-.9 1.9-.9s.8.6.8 1.2v7.6c0 1.1-.6 1.6-1.9 2.5l-12.1 7.8v13.9c0 .9.5 1.5 1.3 1.5h10.2c.8 0 1.7-.8 1.7-2v-6.2c0-1.6.3-2.3.9-2.7 0 0 6-4.1 6.8-4.1.8 0 1.2.5 1.2 1.3v18.6c0 1.7-.8 2.6-2.7 2.6H48.8c-.6 0-1-.3-1-.9 0-1.2 3.8-3.9 3.8-6.6V7.6c0-2.7-3.8-5.4-3.8-6.6 0-.7.4-.9 1-.9h31.1c2 0 2.8.9 2.8 2.3V13c0 1.6-.3 2.3-.9 2.7 0 0-6 4.5-6.8 4.5-.8 0-1.2-.5-1.2-1.3V9.5zM87.1 70.5c0-1.2 3.8-3.9 3.8-6.6V7.6c0-2.7-3.8-5.4-3.8-6.6 0-.7.4-.9 1-.9h27.3c5.3 0 8.2 2.4 8.2 7.9v23c0 2.2-1 3.5-2.5 4.7l-5.9 4.4c3.3 10.6 7.6 23.5 8.5 25 2 3.3 4.1 4.2 4.1 5.4 0 .7-.4.9-1 .9h-14.3c-.6 0-1-.3-1-.9 0-1.2 2-1.8 2-3.4 0-.3-.2-.9-.4-1.9-1.2-4.3-3.9-12.3-6.5-19.6l-5.7 4c-.8.6-1.1 1.4-1.1 2.5v11.8c0 2.7 3.8 5.4 3.8 6.6 0 .7-.4.9-1 .9H88.1c-.6.1-1-.2-1-.9zm12.7-61v28.9c0 .7.3 1 .6 1 .4 0 1.2-.6 1.2-.6l10.2-7.1c2-1.5 2.8-2.6 2.8-4.3V10.5c0-2.2-.7-2.9-2.8-2.9h-10.6c-.7 0-1.4.7-1.4 1.9zM158 71.5h-17.5c-4.2 0-6.9-2.2-6.9-6.1V6.1c0-3.9 2.8-6.1 6.9-6.1H158c4.6 0 7.3 3.5 7.3 6.5v58.4c0 3.1-2.7 6.6-7.3 6.6zm-3.3-63.9h-10.4c-1.3 0-1.9.7-1.9 2.1v52.2c0 1.4.5 2.1 1.9 2.1h10.4c.8 0 1.7-.8 1.7-2V9.6c0-1.3-.9-2-1.7-2zM197.4 9.5c0-1.1-.7-1.9-1.5-1.9h-10.5c-.8 0-1.2.5-1.2 1.5v28.6l11.3-7.3c.9-.6 1.4-.9 1.9-.9s.8.6.8 1.2v7.6c0 1.1-.6 1.6-1.9 2.5l-12.1 7.8v13.9c0 .9.5 1.5 1.3 1.5h10.2c.8 0 1.7-.8 1.7-2v-6.2c0-1.6.3-2.3.9-2.7 0 0 6-4.1 6.8-4.1.8 0 1.2.5 1.2 1.3v18.6c0 1.7-.8 2.6-2.7 2.6h-31.2c-.6 0-1-.3-1-.9 0-1.2 3.8-3.9 3.8-6.6V7.6c0-2.7-3.8-5.4-3.8-6.6 0-.7.4-.9 1-.9h31.1c2 0 2.8.9 2.8 2.3V13c0 1.6-.3 2.3-.9 2.7 0 0-6 4.5-6.8 4.5-.8 0-1.2-.5-1.2-1.3V9.5zM220.6 21.4c0 1.8.4 3.1 2.3 4.6l14.8 11.4c2.8 2.1 3.9 3.7 3.9 7.2v20.8c0 3.9-2.8 6.1-6.9 6.1H219c-4.6 0-7.3-3.5-7.3-6.5V46.9c0-.9.4-1.3 1.2-1.3.9 0 6.8 4.5 6.8 4.5.6.5.9 1.1.9 2.7v9.1c0 1.2.9 2 1.7 2h8.6c1.3 0 1.9-.7 1.9-2.1V48.4c0-1.7-.6-3.1-2.2-4.4l-14.7-11.3c-2.6-2-4.2-3.6-4.2-7.1V6.1c0-3.9 2.8-6.1 6.9-6.1h15.7c4.6 0 7.3 3.5 7.3 6.5v15.2c0 .9-.4 1.3-1.2 1.3-.9 0-6.8-4.5-6.8-4.5-.6-.5-.9-1.1-.9-2.7V9.6c0-1.2-.7-2-1.7-2h-8.6c-1.3 0-1.9.7-1.9 2.1v11.7zM261.1 53.4c-1.4.9-1.9 1.8-1.9 3.9l.1 7.6c0 .6.4 1 .9 1h8.4c1.3 0 1.9-.7 1.9-2v-6.6c-2 1-2 1.1-2 1.1-.6.4-1 .6-1.3.6-.4 0-.6-.4-.6-.8v-4.9c0-.7.4-1 1.4-1.6 9.9-6 9.9-6.1 10-6.1.6-.4 1-.6 1.3-.6.4 0 .6.4.6.8v4.9c0 .7-.4 1-1.3 1.6l-1.8 1.2v13.9c0 2.5-1.9 3.9-4.8 3.9h-14.1c-2.9 0-4.9-1.4-4.9-3.9 0 0 .1-12.4.1-15 0-2.1 5.2-4 5.2-4.7 0-.7-4.5-2.9-4.5-5.4V30.1c0-3.6 2-5.1 5.7-5.1h9.7c3.7 0 5.7 1.5 5.7 5.1v8.1c0 .7 0 1.3-.1 1.5-.1.2-.4.2-.6.2-.2 0-.3-.1-.4-.1l-4.2-2.6c-.6-.3-.6-1-.6-2.1v-2.6c0-1.4-.5-1.9-1.9-1.9h-5.7c-.6 0-1 .5-1 1.2v9.5c0 .4.1.5.2.6.2.2 2.3 2 3 2.3.2.1.2.2.4.2.1 0 .2-.1.3-.1.1 0 .1-.1.2-.1l2.8-1.4c.6-.3 1.1-.7 1.4-.7.4 0 .6.4.6.8v4.9c0 .7-.4 1-1.4 1.6l-6.8 4zM35.7 90.2c0-.2.1-.3.1-.5 0-2.3-3.3-5.8-3.3-6.5 0-.7.4-.9 1-.9h15.8c.7 0 1 .3 1 .9 0 1.2-3.6 3.1-4.5 7l-14 55.9c-.1.3-.1.6-.1.9 0 2.4 2.3 4.6 2.3 5.8 0 .7-.4.9-1 .9H17.4c-.7 0-1-.3-1-.9 0-1.1 2.3-3.4 2.3-5.8 0-.3 0-.6-.1-.9l-14-55.9c-.9-3.9-4.5-5.8-4.5-7 0-.7.4-.9 1-.9h15.7c.7 0 1 .3 1 .9 0 .8-3.3 4.3-3.3 6.5 0 .2.1.3.1.5 1.3 5.6 10.1 43.4 10.1 43.4s.2.6.5.6.5-.6.5-.6 8.7-37.8 10-43.4zM67.2 146.1c0 2.7 4.1 5.4 4.1 6.6 0 .7-.4.9-1 .9H54.7c-.7 0-1-.3-1-.9 0-1.2 4.1-3.9 4.1-6.6V89.8c0-2.7-4.1-5.4-4.1-6.6 0-.7.4-.9 1-.9h15.5c.7 0 1 .3 1 .9 0 1.2-4.1 3.9-4.1 6.6v56.3zM98.5 146.1c.9 0 1.8-.8 1.8-2v-6.2c0-1.6.3-2.3.9-2.7 0 0 6.3-4.5 7.3-4.5.9 0 1.2.5 1.2 1.3v19.1c0 1.7-.9 2.6-2.8 2.6H76.6c-.7 0-1-.3-1-.9 0-1.2 4.1-3.9 4.1-6.6V89.8c0-2.7-4.1-5.4-4.1-6.6 0-.7.4-.9 1-.9h15.5c.7 0 1 .3 1 .9 0 1.2-4.1 3.9-4.1 6.6V144c0 1.4.6 2.1 2 2.1h7.5zM137.5 146.1c.9 0 1.8-.8 1.8-2v-6.2c0-1.6.3-2.3.9-2.7 0 0 6.3-4.5 7.3-4.5.9 0 1.2.5 1.2 1.3v19.1c0 1.7-.9 2.6-2.8 2.6h-30.4c-.7 0-1-.3-1-.9 0-1.2 4.1-3.9 4.1-6.6V89.8c0-2.7-4.1-5.4-4.1-6.6 0-.7.4-.9 1-.9H131c.7 0 1 .3 1 .9 0 1.2-4.1 3.9-4.1 6.6V144c0 1.4.6 2.1 2 2.1h7.6zM187.5 82.2c1 0 1.3.3 1.3.9 0 .8-2.5 4.3-2.5 6.1 0 2.5 12.6 52.8 13.2 55 1.2 4.8 5.1 7.7 5.1 8.5 0 .8-.4.9-1.4.9h-14.8c-.8 0-1.5-.2-1.5-.9 0-.9 3.6-3.8 3.6-5.1s-3-12.5-3.3-13.6c-.2-.6-.4-.8-.9-.8-.3 0-.9.2-1.9.7l-16.1 9c-.9.5-1.3.8-1.3 1.5v1.5c0 2.9 3.5 6.4 3.5 6.8 0 .7-.3.9-1.3.9h-15.6c-.7 0-1-.3-1-.9 0-.9 3.8-4 4.5-6.7.8-2.7 13.6-55 13.6-56.8s-2.5-5.3-2.5-6.1c0-.7.3-.9 1.3-.9h18zm-8.3 15.7s-.2-.7-.8-.7c-.5 0-.7.7-.7.7l-7.3 33.1c0 .3.1.5.3.5.1 0 .3-.1.5-.2 2.6-1.5 10.6-5.8 12.9-7.2.4-.3.6-.5.6-.9 0-.2-.2-.9-.2-.9l-5.3-24.4zM222.3 146.1c0 2.7 4.1 5.4 4.1 6.6 0 .7-.4.9-1 .9h-15.5c-.7 0-1-.3-1-.9 0-1.2 4.1-3.9 4.1-6.6V89.8c0-2.7-4.1-5.4-4.1-6.6 0-.7.4-.9 1-.9h15.5c.7 0 1 .3 1 .9 0 1.2-4.1 3.9-4.1 6.6v56.3zM268.5 153.7c-1.4 0-2.1-.9-3.1-2.8l-20.2-42.2c-.5-.9-.6-1.2-1-1.2s-.5.3-.5 1v37.7c0 2.7 4.1 5.4 4.1 6.6 0 .7-.4.9-1 .9h-15.1c-.7 0-1-.3-1-.9 0-1.2 4.1-3.9 4.1-6.6V89.8c0-2.7-4.1-5.4-4.1-6.6 0-.7.4-.9 1-.9h10.8c1.4 0 2.3.9 3.1 2.8l20.7 45.7c.2.4.4.8.7.8.3 0 .3-.6.3-.6V89.8c0-2.7-4.1-5.4-4.1-6.6 0-.7.4-.9 1-.9h15.1c.7 0 1 .3 1 .9 0 1.2-4.1 3.9-4.1 6.6v62c0 .9-.4 1.9-1.8 1.9h-5.9zM294.1 103.6c0 1.8.5 3.1 2.5 4.6l15.8 11.4c2.9 2.1 4.2 3.7 4.2 7.2v20.8c0 3.9-2.9 6.1-7.4 6.1h-16.8c-4.9 0-7.8-3.5-7.8-6.5v-18.1c0-.9.4-1.3 1.2-1.3.9 0 7.3 4.5 7.3 4.5.7.5.9 1.1.9 2.7v9.1c0 1.2.9 2 1.8 2h9.2c1.4 0 2-.7 2-2.1v-13.4c0-1.7-.7-3.1-2.4-4.4L289 115c-2.7-2-4.4-3.6-4.4-7.1V88.3c0-3.9 2.9-6.1 7.4-6.1h16.8c4.9 0 7.8 3.5 7.8 6.5V104c0 .9-.4 1.3-1.2 1.3-.9 0-7.3-4.5-7.3-4.5-.7-.5-.9-1.1-.9-2.7v-6.2c0-1.2-.8-2-1.8-2H296c-1.4 0-2 .7-2 2.1v11.6z"/>
</svg>
